<svg width="77" height="100" viewBox="0 0 77 100" fill="none" xmlns="http://www.w3.org/2000/svg">
<path d="M76.201 20.4168V90.9441C76.201 95.9275 72.1285 100 67.1451 100H9.05586C8.77969 100 8.51738 99.9861 8.24141 99.9586C8.00664 99.9447 7.7582 99.8895 7.5373 99.848C7.30254 99.8066 7.06797 99.7652 6.84707 99.6963C6.73672 99.6686 6.62617 99.641 6.52949 99.6135C6.40527 99.5857 6.28105 99.5582 6.1707 99.5168C5.72891 99.3787 5.30098 99.1855 4.88691 98.9647C4.72129 98.8957 4.5832 98.799 4.43145 98.7023C4.23809 98.6057 4.04492 98.4814 3.86543 98.3572C3.68594 98.233 3.53418 98.1088 3.36855 97.9707C3.34082 97.9568 3.32715 97.9293 3.29961 97.9154C3.07871 97.7221 2.87168 97.5428 2.66465 97.3357C2.45762 97.1287 2.27813 96.9354 2.08496 96.7008C2.07109 96.6732 2.04355 96.6594 2.02969 96.6318C1.8916 96.4662 1.76738 96.3145 1.64316 96.135C1.51895 95.9555 1.39473 95.7621 1.29805 95.5689C1.20137 95.4172 1.10469 95.2791 1.03574 95.1135C0.814844 94.6994 0.62168 94.2713 0.483594 93.8297C0.442188 93.7193 0.414648 93.5949 0.387109 93.4707C0.35957 93.374 0.331836 93.2637 0.304297 93.1531C0.235156 92.9322 0.19375 92.6977 0.152344 92.4629C0.110937 92.242 0.0556641 92.0074 0.0419922 91.759C0.0138672 91.4826 0 91.2203 0 90.9441V20.4168C0 15.4473 4.07227 11.375 9.05586 11.375H67.1453C67.4766 11.375 67.8217 11.3889 68.1529 11.4439C70.3893 11.6926 72.3633 12.7555 73.799 14.3152C74.8895 15.4887 75.6625 16.9656 76.0076 18.6084C76.0215 18.7051 76.049 18.8018 76.0629 18.8982C76.0906 19.0639 76.1182 19.2434 76.1457 19.4229C76.1596 19.4918 76.1596 19.5609 76.1596 19.6437C76.1871 19.8924 76.201 20.1547 76.201 20.4168Z" fill="#CFB6A6"/>
<path d="M70.1102 17.5027H6.09082V93.8674H70.1102V17.5027Z" fill="white"/>
<path d="M70.1102 17.5029H6.09082V20.3248H70.1102V17.5029Z" fill="#F0EFEF"/>
<path d="M38.1004 52.5107C46.3066 52.5107 52.959 45.8583 52.959 37.6522C52.959 29.446 46.3066 22.7936 38.1004 22.7936C29.8942 22.7936 23.2418 29.446 23.2418 37.6522C23.2418 45.8583 29.8942 52.5107 38.1004 52.5107Z" fill="#F8F1DF"/>
<path d="M58.0756 9.7875L57.8133 11.375L57.2889 14.4119L56.502 19.0502H19.699L19.6715 18.8432L19.6023 18.4291L19.4367 17.5041L18.9123 14.4119L18.3877 11.375L18.1254 9.7875H58.0756Z" fill="#BCBCBC"/>
<path d="M48.2055 9.7875C48.0398 4.48652 43.8018 0.207227 38.501 0.0138672C38.3627 0 38.2385 0 38.1004 0H38.0314C32.5787 0.0414062 28.1613 4.37598 27.9957 9.7875C27.9818 9.87031 27.9818 9.96699 27.9818 10.0498V10.1187C27.9818 10.2568 27.9818 10.3949 27.9957 10.5189C27.9957 10.8227 28.0232 11.0986 28.0646 11.3748C28.1889 12.4516 28.4926 13.473 28.9344 14.4117C29.4865 15.585 30.2457 16.6342 31.1846 17.5039C31.8334 18.1113 32.5512 18.6221 33.3381 19.05H42.8631C43.65 18.6221 44.3678 18.1113 45.0166 17.5039C45.9553 16.6342 46.7146 15.585 47.2668 14.4117C47.7086 13.473 48.0123 12.4516 48.1365 11.3748C48.1918 10.9607 48.2193 10.5465 48.2193 10.1186C48.2191 10.0082 48.2191 9.89785 48.2055 9.7875ZM41.3723 14.4119C40.475 15.116 39.3291 15.5301 38.1006 15.5301C36.8721 15.5301 35.7262 15.116 34.8289 14.4119C33.8488 13.6803 33.1311 12.6035 32.8273 11.375C32.7307 10.9746 32.6893 10.5467 32.6893 10.1187C32.6893 10.0082 32.6893 9.88418 32.7031 9.7875C32.8826 6.95762 35.2293 4.70742 38.1006 4.70742C40.9719 4.70742 43.3187 6.95742 43.4982 9.7875C43.5121 9.88418 43.5121 10.0084 43.5121 10.1187C43.5121 10.5467 43.4707 10.9746 43.374 11.375C43.0701 12.6035 42.3523 13.6803 41.3723 14.4119Z" fill="#BCBCBC"/>
<path opacity="0.23" d="M18.1254 9.7875L18.3877 11.375H18.4016L18.9123 14.4119H57.2889L57.7996 11.375H57.8135L58.0758 9.7875H18.1254Z" fill="white"/>
<path d="M48.6371 35.1939H27.5639V41.9619H48.6371V35.1939Z" fill="#D73E5C"/>
<path d="M41.4844 28.0414H34.7164V49.1146H41.4844V28.0414Z" fill="#D73E5C"/>
<path d="M67.5529 56.6111H8.64805V58.3748H67.5529V56.6111Z" fill="#ADA8AA"/>
<path d="M64.2902 63.3129H11.9107V67.1928H64.2902V63.3129Z" fill="#ADA8AA"/>
<path d="M64.2902 72.66H11.9107V76.5398H64.2902V72.66Z" fill="#ADA8AA"/>
<path d="M51.6803 82.0072H24.5205V85.8871H51.6803V82.0072Z" fill="#ADA8AA"/>
<path opacity="0.04" d="M76.201 20.4168V90.9441C76.201 95.9275 72.1285 100 67.1451 100H9.05586C8.77969 100 8.51738 99.9861 8.24141 99.9586C8.00664 99.9447 7.7582 99.8894 7.5373 99.848C7.30254 99.8066 7.06797 99.7652 6.84707 99.6963C6.73672 99.6686 6.62617 99.641 6.52949 99.6135C6.40527 99.5857 6.28105 99.5582 6.1707 99.5168C5.72891 99.3787 5.30098 99.1855 4.88691 98.9646C4.72129 98.8957 4.5832 98.799 4.43145 98.7023C4.23809 98.6057 4.04492 98.4814 3.86543 98.3572C3.68594 98.233 3.53418 98.1088 3.36855 97.9707C3.34082 97.9568 3.32715 97.9293 3.29961 97.9154C3.07871 97.7221 2.87168 97.5428 2.66465 97.3357C2.45762 97.1287 2.27813 96.9353 2.08496 96.7008C2.07109 96.6732 2.04355 96.6594 2.02969 96.6318C1.8916 96.4662 1.76738 96.3144 1.64316 96.135C1.51895 95.9555 1.39473 95.7621 1.29805 95.5689C1.20137 95.4172 1.10469 95.2791 1.03574 95.1135C0.814844 94.6994 0.62168 94.2713 0.483594 93.8297C0.442188 93.7193 0.414648 93.5949 0.387109 93.4707C0.35957 93.374 0.331836 93.2637 0.304297 93.1531C0.235156 92.9322 0.19375 92.6977 0.152344 92.4629C0.110937 92.242 0.0556641 92.0074 0.0419922 91.759C0.0138672 91.4826 0 91.2203 0 90.9441V88.0865L31.4742 56.6123L35.7537 52.333L35.7674 52.3191L38.9838 49.1164L48.6332 39.467L52.7609 35.3256L52.7746 35.3117L67.7939 20.3201L70.0994 18.0008L70.1131 17.9871L71.7697 16.3168L72.4047 15.6818L73.799 14.3152C74.8895 15.4887 75.6625 16.9656 76.0076 18.6084C76.0215 18.7051 76.049 18.8018 76.0629 18.8982C76.0906 19.0639 76.1182 19.2434 76.1457 19.4229C76.1596 19.4918 76.1596 19.5609 76.1596 19.6437C76.1871 19.8924 76.201 20.1547 76.201 20.4168Z" fill="#040000"/>
</svg>
