<svg width="100" height="100" viewBox="0 0 100 100" fill="none" xmlns="http://www.w3.org/2000/svg">
<path d="M66.4926 34.5361V44.8447H54.1227V39.6914V34.5361H66.4926Z" fill="#E7ECED"/>
<path d="M45.8754 39.6914V44.8447H33.5055V34.5361H45.8754V39.6914Z" fill="#E7ECED"/>
<path d="M50 1.54902C75.7703 1.54902 72.6785 29.3828 72.6785 29.3828C59.1479 29.3828 48.9693 22.1662 48.9693 22.1662C48.9693 28.3521 27.3215 29.3828 27.3215 29.3828C27.3215 29.3828 24.2275 1.54902 50 1.54902Z" fill="#A97C50"/>
<path d="M50 74.7398C56.0559 74.7398 60.3086 69.5865 60.3086 69.5865C62.5641 72.098 69.5865 75.7705 69.5865 75.7705C89.1193 81.9565 89.173 93.2957 89.173 93.2957C89.173 93.2957 89.173 95.5635 89.173 98.451H10.827C10.827 95.5635 10.827 93.2957 10.827 93.2957C10.827 93.2957 11.0211 82.0205 30.4135 75.7705C30.4135 75.7705 37.4359 72.0982 39.6914 69.5865C39.6914 69.5865 43.9441 74.7398 50 74.7398Z" fill="#FFAD33"/>
<path d="M60.3086 63.0328V69.5865C60.3086 69.5865 56.0559 74.7398 50 74.7398C43.9441 74.7398 39.6914 69.5865 39.6914 69.5865V63.0328C42.6967 64.5902 46.1645 65.4617 50 65.4617C53.8355 65.4617 57.3033 64.5902 60.3086 63.0328Z" fill="#FFE1B2"/>
<path d="M72.6785 34.5361C76.0947 34.5361 78.8645 35.8125 78.8645 38.6607C78.8645 41.2982 75.601 44.3572 72.4037 44.791C72.5856 43.467 72.6783 42.108 72.6783 40.7221V34.5361H72.6785Z" fill="#FFE1B2"/>
<path d="M27.3215 40.7221C27.3215 42.108 27.4144 43.467 27.5961 44.791C24.3988 44.3572 21.1353 41.2984 21.1353 38.6607C21.1353 35.8125 23.9051 34.5361 27.3213 34.5361V40.7221H27.3215Z" fill="#FFE1B2"/>
<path d="M45.8754 34.5361H33.5055V44.8447H45.8754V34.5361ZM54.1226 44.8447H66.4926V34.5361H54.1226V44.8447ZM72.4037 44.791C71.3029 52.8545 66.9262 59.6043 60.3086 63.033C57.3033 64.5904 53.8355 65.4619 50 65.4619C46.1644 65.4619 42.6967 64.5902 39.6914 63.033C33.0717 59.6043 28.6971 52.8566 27.5963 44.791C27.4144 43.467 27.3217 42.108 27.3217 40.7221V34.5361V29.3828C27.3217 29.3828 48.9695 28.3521 48.9695 22.1662C48.9695 22.1662 59.148 29.3828 72.6787 29.3828V34.5361V40.7221C72.6785 42.108 72.5855 43.467 72.4037 44.791Z" fill="#FFE1B2"/>
<path d="M70.1861 74.3355C68.3461 73.3646 63.8174 70.7949 61.8576 68.9527V63.9496C68.1303 60.3584 72.4117 53.9346 73.7691 46.0803C77.3217 45.0615 80.4135 41.7273 80.4135 38.6607C80.4135 35.5574 78.0818 33.498 74.2275 33.0709V29.4633C74.358 28.1602 75.4121 15.4379 67.9184 7.06543C63.7219 2.37734 57.6934 0 50 0C42.3059 0 36.2768 2.37754 32.0803 7.06621C24.5867 15.4391 25.642 28.1611 25.7725 29.4635V33.0707C21.9182 33.4979 19.5865 35.5572 19.5865 38.6605C19.5865 41.7283 22.6807 45.0641 26.2309 46.0809C27.5887 53.9363 31.8699 60.3596 38.1424 63.9498V68.9529C36.1816 70.7963 31.6484 73.3678 29.8103 74.3375C9.72324 80.8615 9.28671 92.7645 9.27812 93.2691L9.27792 100H90.7221V93.2881C90.7195 92.7803 90.4316 80.7979 70.1861 74.3355ZM50 73.1906C45.6816 73.1906 42.3051 70.0895 41.2404 68.9859V65.4246C43.9625 66.4766 46.8978 67.0107 50 67.0107C53.1019 67.0107 56.0373 66.4764 58.7596 65.4246V68.9891C57.6998 70.0957 54.3465 73.1906 50 73.1906ZM77.3154 38.6607C77.3154 39.9228 75.9512 41.641 74.1693 42.592C74.2057 41.9711 74.2273 36.1848 74.2273 36.1848C76.9793 36.5719 77.3154 37.9951 77.3154 38.6607ZM34.4002 9.11992C37.9834 5.12422 43.232 3.09824 50 3.09824C56.7672 3.09824 62.0152 5.12402 65.5986 9.11934C71.0506 15.1982 71.3338 24.3305 71.2221 27.8033C59.0945 27.3188 49.9586 20.9682 49.8652 20.9025L47.4201 19.1689V22.166C47.4201 23.4131 44.9144 25.2242 37.8824 26.5672C34.3332 27.2451 30.7432 27.5848 28.7758 27.7346C28.6701 24.21 28.9846 15.1586 34.4002 9.11992ZM22.6846 38.6607C22.6846 37.9951 23.0209 36.5717 25.7725 36.185C25.7725 36.185 25.7943 41.9719 25.8307 42.593C24.05 41.6424 22.6846 39.9236 22.6846 38.6607ZM29.1309 44.5803C28.9582 43.3221 28.8707 42.0238 28.8707 40.7221V30.8363C30.8726 30.6887 34.6301 30.3408 38.4355 29.616C44.5748 28.4465 48.3318 26.7709 49.8039 24.5289C53.1699 26.5174 61.1199 30.5182 71.1295 30.9021V40.7221C71.1295 42.0238 71.042 43.3219 70.8691 44.5812C69.8201 52.265 65.7113 58.4891 59.5961 61.6574C56.7084 63.1539 53.4799 63.9127 50.0004 63.9127C46.5209 63.9127 43.292 63.1539 40.4041 61.6574C34.2887 58.4902 30.1799 52.2662 29.1309 44.5803ZM87.624 96.9018H12.3762V93.3147C12.3889 92.9895 12.9676 83.0203 30.8889 77.2445C30.8889 77.2445 36.7518 74.1738 39.6381 71.7607C41.2264 73.2549 44.3676 75.6762 48.4512 76.1895V94.326H51.5494V76.1895C55.633 75.6762 58.774 73.2549 60.3625 71.7607C63.249 74.1738 69.1193 77.2469 69.1193 77.2469C74.3693 78.9096 81.4352 82.0414 85.2836 87.5203C87.4936 90.6664 87.6195 93.1832 87.6244 93.3111L87.624 96.9018Z" fill="#231F20"/>
<path d="M47.4244 41.2404H52.5736V46.3938H68.0416V32.9871H52.5736V38.1424H47.4244V32.9871H31.9564V46.3938H47.4244V41.2404ZM55.6717 36.0852H64.9434V43.2955H55.6717V36.0852ZM44.3262 43.2955H35.0545V36.0852H44.3262V43.2955Z" fill="#231F20"/>
<path d="M51.549 47.9387H48.451V54.641H54.1227V51.543H51.549V47.9387Z" fill="#231F20"/>
<path d="M77.8338 87.6238H61.3393V90.7221H77.8338V87.6238Z" fill="#231F20"/>
<path d="M45.8754 78.3461H41.7527V81.4443H45.8754V78.3461Z" fill="#231F20"/>
<path d="M45.8754 84.5299H41.7527V87.6281H45.8754V84.5299Z" fill="#231F20"/>
<path d="M45.8754 90.7158H41.7527V93.8141H45.8754V90.7158Z" fill="#231F20"/>
</svg>
