<svg width="118" height="34" viewBox="0 0 118 34" fill="none" xmlns="http://www.w3.org/2000/svg">
<rect x="12.6" y="2" width="4.8" height="30" rx="2.4" fill="#FF5A5A"/>
<rect y="19.4" width="4.8" height="30" rx="2.4" transform="rotate(-90 0 19.4)" fill="#FF5A5A"/>
<path d="M38.048 17.84V15.92H49.568V17.84H38.048ZM48.2 9.2H50.24V26H48.2V9.2ZM36.92 9.2H38.96V26H36.92V9.2ZM58.2283 26.24C57.2043 26.24 56.2923 26 55.4923 25.52C54.7083 25.024 54.0923 24.344 53.6443 23.48C53.2123 22.616 52.9963 21.616 52.9963 20.48C52.9963 19.328 53.2203 18.32 53.6683 17.456C54.1323 16.592 54.7723 15.92 55.5883 15.44C56.4203 14.96 57.3803 14.72 58.4683 14.72C59.5563 14.72 60.4843 14.952 61.2523 15.416C62.0363 15.864 62.6363 16.512 63.0523 17.36C63.4683 18.208 63.6763 19.216 63.6763 20.384C63.6763 20.496 63.6683 20.616 63.6523 20.744C63.6523 20.856 63.6523 20.928 63.6523 20.96H54.2203V19.328H62.1403L61.3723 20.432C61.4203 20.352 61.4683 20.232 61.5163 20.072C61.5643 19.896 61.5883 19.752 61.5883 19.64C61.5883 18.984 61.4523 18.416 61.1803 17.936C60.9243 17.456 60.5643 17.08 60.1003 16.808C59.6363 16.536 59.0923 16.4 58.4683 16.4C57.7323 16.4 57.1003 16.56 56.5723 16.88C56.0603 17.184 55.6603 17.632 55.3723 18.224C55.1003 18.8 54.9563 19.512 54.9403 20.36C54.9403 21.224 55.0763 21.96 55.3483 22.568C55.6203 23.176 56.0203 23.64 56.5483 23.96C57.0763 24.28 57.7163 24.44 58.4683 24.44C59.2203 24.44 59.8843 24.28 60.4603 23.96C61.0363 23.624 61.5243 23.12 61.9243 22.448L63.4843 23.432C62.9083 24.36 62.1803 25.064 61.3003 25.544C60.4363 26.008 59.4123 26.24 58.2283 26.24ZM67.1718 22.592C67.1718 23.008 67.2678 23.368 67.4598 23.672C67.6678 23.976 67.9478 24.208 68.2998 24.368C68.6678 24.512 69.0838 24.584 69.5478 24.584C70.1398 24.584 70.6678 24.464 71.1318 24.224C71.6118 23.984 71.9878 23.648 72.2598 23.216C72.5478 22.768 72.6918 22.256 72.6918 21.68L73.0758 23.12C73.0758 23.824 72.8598 24.408 72.4278 24.872C72.0118 25.336 71.4918 25.68 70.8678 25.904C70.2598 26.128 69.6518 26.24 69.0438 26.24C68.3718 26.24 67.7398 26.104 67.1478 25.832C66.5718 25.544 66.1078 25.136 65.7558 24.608C65.4038 24.08 65.2278 23.44 65.2278 22.688C65.2278 21.616 65.6038 20.76 66.3558 20.12C67.1238 19.464 68.1878 19.136 69.5478 19.136C70.3478 19.136 71.0118 19.232 71.5398 19.424C72.0838 19.6 72.5158 19.808 72.8358 20.048C73.1558 20.272 73.3718 20.456 73.4838 20.6V21.728C72.9238 21.344 72.3478 21.072 71.7558 20.912C71.1638 20.736 70.5318 20.648 69.8598 20.648C69.2358 20.648 68.7238 20.728 68.3238 20.888C67.9398 21.048 67.6518 21.272 67.4598 21.56C67.2678 21.848 67.1718 22.192 67.1718 22.592ZM66.8838 17.504L65.9478 16.088C66.3638 15.784 66.9318 15.48 67.6518 15.176C68.3878 14.872 69.2678 14.72 70.2918 14.72C71.1558 14.72 71.9078 14.856 72.5478 15.128C73.2038 15.384 73.7078 15.76 74.0598 16.256C74.4278 16.752 74.6118 17.36 74.6118 18.08V26H72.6918V18.344C72.6918 17.96 72.6278 17.648 72.4998 17.408C72.3718 17.152 72.1878 16.952 71.9478 16.808C71.7238 16.664 71.4598 16.56 71.1558 16.496C70.8518 16.432 70.5318 16.4 70.1958 16.4C69.6518 16.4 69.1558 16.464 68.7078 16.592C68.2758 16.72 67.9078 16.872 67.6038 17.048C67.2998 17.224 67.0598 17.376 66.8838 17.504ZM77.8625 7.28H79.7825V26H77.8625V7.28ZM81.7138 14.96H87.2338V16.76H81.7138V14.96ZM83.5138 11.12H85.4338V26H83.5138V11.12ZM91.0794 7.28V26H89.1594V7.28H91.0794ZM96.2394 19.28C96.2394 18.368 96.0394 17.68 95.6394 17.216C95.2554 16.752 94.6714 16.52 93.8874 16.52C93.3274 16.52 92.8314 16.64 92.3994 16.88C91.9834 17.12 91.6554 17.448 91.4154 17.864C91.1914 18.28 91.0794 18.752 91.0794 19.28H90.4554C90.4554 18.4 90.6234 17.624 90.9594 16.952C91.2954 16.264 91.7514 15.72 92.3274 15.32C92.9194 14.92 93.5994 14.72 94.3674 14.72C95.1354 14.72 95.7994 14.88 96.3594 15.2C96.9354 15.52 97.3754 16 97.6794 16.64C97.9994 17.28 98.1594 18.08 98.1594 19.04V26H96.2394V19.28ZM110.412 14.96L103.212 31.28H101.052L104.076 24.44L99.8516 14.96H102.132L105.636 23.6L104.844 23.504L108.252 14.96H110.412Z" fill="#FF5A5A"/>
</svg>
