<svg width="175" height="50" viewBox="0 0 175 50" fill="none" xmlns="http://www.w3.org/2000/svg">
<rect x="21" width="8" height="50" rx="4" fill="#FF5A5A"/>
<rect y="29" width="8" height="50" rx="4" transform="rotate(-90 0 29)" fill="#FF5A5A"/>
<path d="M63.572 27.76V24.88H80.852V27.76H63.572ZM78.8 14.8H81.86V40H78.8V14.8ZM61.88 14.8H64.94V40H61.88V14.8ZM93.8424 40.36C92.3064 40.36 90.9384 40 89.7384 39.28C88.5624 38.536 87.6384 37.516 86.9664 36.22C86.3184 34.924 85.9944 33.424 85.9944 31.72C85.9944 29.992 86.3304 28.48 87.0024 27.184C87.6984 25.888 88.6584 24.88 89.8824 24.16C91.1304 23.44 92.5704 23.08 94.2024 23.08C95.8344 23.08 97.2264 23.428 98.3784 24.124C99.5544 24.796 100.454 25.768 101.078 27.04C101.702 28.312 102.014 29.824 102.014 31.576C102.014 31.744 102.002 31.924 101.978 32.116C101.978 32.284 101.978 32.392 101.978 32.44H87.8304V29.992H99.7104L98.5584 31.648C98.6304 31.528 98.7024 31.348 98.7744 31.108C98.8464 30.844 98.8824 30.628 98.8824 30.46C98.8824 29.476 98.6784 28.624 98.2704 27.904C97.8864 27.184 97.3464 26.62 96.6504 26.212C95.9544 25.804 95.1384 25.6 94.2024 25.6C93.0984 25.6 92.1504 25.84 91.3584 26.32C90.5904 26.776 89.9904 27.448 89.5584 28.336C89.1504 29.2 88.9344 30.268 88.9104 31.54C88.9104 32.836 89.1144 33.94 89.5224 34.852C89.9304 35.764 90.5304 36.46 91.3224 36.94C92.1144 37.42 93.0744 37.66 94.2024 37.66C95.3304 37.66 96.3264 37.42 97.1904 36.94C98.0544 36.436 98.7864 35.68 99.3864 34.672L101.726 36.148C100.862 37.54 99.7704 38.596 98.4504 39.316C97.1544 40.012 95.6184 40.36 93.8424 40.36ZM107.258 34.888C107.258 35.512 107.402 36.052 107.69 36.508C108.002 36.964 108.422 37.312 108.95 37.552C109.502 37.768 110.126 37.876 110.822 37.876C111.71 37.876 112.502 37.696 113.198 37.336C113.918 36.976 114.482 36.472 114.89 35.824C115.322 35.152 115.538 34.384 115.538 33.52L116.114 35.68C116.114 36.736 115.79 37.612 115.142 38.308C114.518 39.004 113.738 39.52 112.802 39.856C111.89 40.192 110.978 40.36 110.066 40.36C109.058 40.36 108.11 40.156 107.222 39.748C106.358 39.316 105.662 38.704 105.134 37.912C104.606 37.12 104.342 36.16 104.342 35.032C104.342 33.424 104.906 32.14 106.034 31.18C107.186 30.196 108.782 29.704 110.822 29.704C112.022 29.704 113.018 29.848 113.81 30.136C114.626 30.4 115.274 30.712 115.754 31.072C116.234 31.408 116.558 31.684 116.726 31.9V33.592C115.886 33.016 115.022 32.608 114.134 32.368C113.246 32.104 112.298 31.972 111.29 31.972C110.354 31.972 109.586 32.092 108.986 32.332C108.41 32.572 107.978 32.908 107.69 33.34C107.402 33.772 107.258 34.288 107.258 34.888ZM106.826 27.256L105.422 25.132C106.046 24.676 106.898 24.22 107.978 23.764C109.082 23.308 110.402 23.08 111.938 23.08C113.234 23.08 114.362 23.284 115.322 23.692C116.306 24.076 117.062 24.64 117.59 25.384C118.142 26.128 118.418 27.04 118.418 28.12V40H115.538V28.516C115.538 27.94 115.442 27.472 115.25 27.112C115.058 26.728 114.782 26.428 114.422 26.212C114.086 25.996 113.69 25.84 113.234 25.744C112.778 25.648 112.298 25.6 111.794 25.6C110.978 25.6 110.234 25.696 109.562 25.888C108.914 26.08 108.362 26.308 107.906 26.572C107.45 26.836 107.09 27.064 106.826 27.256ZM123.294 11.92H126.174V40H123.294V11.92ZM129.071 23.44H137.351V26.14H129.071V23.44ZM131.771 17.68H134.651V40H131.771V17.68ZM143.119 11.92V40H140.239V11.92H143.119ZM150.859 29.92C150.859 28.552 150.559 27.52 149.959 26.824C149.383 26.128 148.507 25.78 147.331 25.78C146.491 25.78 145.747 25.96 145.099 26.32C144.475 26.68 143.983 27.172 143.623 27.796C143.287 28.42 143.119 29.128 143.119 29.92H142.183C142.183 28.6 142.435 27.436 142.939 26.428C143.443 25.396 144.127 24.58 144.991 23.98C145.879 23.38 146.899 23.08 148.051 23.08C149.203 23.08 150.199 23.32 151.039 23.8C151.903 24.28 152.563 25 153.019 25.96C153.499 26.92 153.739 28.12 153.739 29.56V40H150.859V29.92ZM172.117 23.44L161.317 47.92H158.077L162.613 37.66L156.277 23.44H159.697L164.953 36.4L163.765 36.256L168.877 23.44H172.117Z" fill="#FF5A5A"/>
</svg>
