<svg width="25" height="25" viewBox="0 0 25 25" fill="none" xmlns="http://www.w3.org/2000/svg">
<path d="M14.8125 0.8125C9.64526 0.8125 5.4375 5.02026 5.4375 10.1875C5.4375 12.4324 6.22485 14.4905 7.54688 16.1055L0.0761719 23.5762L1.42383 24.9238L8.89453 17.4531C10.5095 18.7751 12.5676 19.5625 14.8125 19.5625C19.9797 19.5625 24.1875 15.3547 24.1875 10.1875C24.1875 5.02026 19.9797 0.8125 14.8125 0.8125ZM14.8125 2.6875C18.9653 2.6875 22.3125 6.03467 22.3125 10.1875C22.3125 14.3403 18.9653 17.6875 14.8125 17.6875C10.6597 17.6875 7.3125 14.3403 7.3125 10.1875C7.3125 6.03467 10.6597 2.6875 14.8125 2.6875Z" fill="black" fill-opacity="0.7"/>
</svg>
