<svg width="100" height="100" viewBox="0 0 100 100" fill="none" xmlns="http://www.w3.org/2000/svg">
<path d="M49.999 49.999H59.2768C59.2768 49.999 59.2768 58.2461 49.999 58.2461C40.7213 58.2461 40.7213 49.999 40.7213 49.999H49.999Z" fill="#E7ECED"/>
<path d="M49.999 1.54902C75.7709 1.54902 72.6791 29.3822 72.6791 29.3822C59.1486 29.3822 48.9684 22.1658 48.9684 22.1658C48.9684 28.3518 27.3211 29.3822 27.3211 29.3822C27.3211 29.3822 24.2291 1.54902 49.999 1.54902Z" fill="#A18369"/>
<path d="M74.7877 77.7248L74.7402 77.8342V98.451H25.2598V77.8342L25.2227 77.7494C26.7779 77.0514 28.5025 76.3863 30.4129 75.7707C30.4129 75.7707 37.4352 72.0984 39.6906 69.5869C39.6906 69.5869 43.9434 74.74 49.999 74.74C56.0568 74.74 60.3094 69.5869 60.3094 69.5869C62.5627 72.0984 69.5871 75.7707 69.5871 75.7707C71.5018 76.3781 73.2305 77.0328 74.7877 77.7248Z" fill="#87CD15"/>
<path d="M89.1732 93.2957C89.1732 93.2957 89.1732 95.5656 89.1732 98.451H74.7402V77.8342L74.7877 77.7248C89.1299 84.0717 89.1732 93.2957 89.1732 93.2957Z" fill="#FFE1B2"/>
<path d="M25.2598 77.8342V98.451H10.8268C10.8268 95.5656 10.8268 93.2957 10.8268 93.2957C10.8268 93.2957 10.9838 84.1336 25.2225 77.7496L25.2598 77.8342Z" fill="#FFE1B2"/>
<path d="M60.3094 63.0336V69.5871C60.3094 69.5871 56.0568 74.7402 49.999 74.7402C43.9434 74.7402 39.6906 69.5871 39.6906 69.5871V63.0336C42.6957 64.5908 46.1635 65.4625 49.999 65.4625C53.8344 65.4625 57.3021 64.5889 60.3094 63.0336Z" fill="#FFE1B2"/>
<path d="M72.6791 34.5375C76.0953 34.5375 78.865 35.8139 78.865 38.66C78.865 41.2975 75.6018 44.3584 72.4045 44.7922C72.5863 43.4684 72.6791 42.1072 72.6791 40.7213V34.5375Z" fill="#FFE1B2"/>
<path d="M27.3209 40.7213C27.3209 42.1072 27.4139 43.4682 27.5955 44.7922C24.3982 44.3584 21.135 41.2975 21.135 38.66C21.135 35.8139 23.9047 34.5375 27.3209 34.5375V40.7213Z" fill="#FFE1B2"/>
<path d="M72.4043 44.7922C71.3014 52.8576 66.927 59.6031 60.3094 63.0338C57.3022 64.5891 53.8344 65.4627 49.999 65.4627C46.1637 65.4627 42.6959 64.591 39.6906 63.0338C33.0731 59.6053 28.6986 52.8576 27.5957 44.7922C27.4139 43.4684 27.3211 42.1072 27.3211 40.7213V34.5375V29.3822C27.3211 29.3822 48.9684 28.3516 48.9684 22.1658C48.9684 22.1658 59.1486 29.3822 72.6791 29.3822V34.5375V40.7213C72.6791 42.107 72.5861 43.4682 72.4043 44.7922ZM59.2768 49.999H49.999H40.7213C40.7213 49.999 40.7213 58.2461 49.999 58.2461C59.2768 58.2461 59.2768 49.999 59.2768 49.999Z" fill="#FFE1B2"/>
<path d="M75.4166 76.3092C73.8125 75.5967 72.0537 74.933 70.1869 74.3361C68.3473 73.3662 63.8184 70.7979 61.8586 68.9539V63.9502C68.1295 60.358 72.4107 53.9348 73.7697 46.0814C77.3225 45.0625 80.4141 41.7273 80.4141 38.66C80.4141 35.558 78.0824 33.4992 74.2281 33.0723V29.4627C74.3586 28.1596 75.4127 15.4385 67.9189 7.06621C63.7221 2.37754 57.693 0 49.999 0C42.3059 0 36.2773 2.37734 32.0811 7.06543C24.5871 15.4377 25.6414 28.1594 25.7719 29.4625V33.0723C21.9176 33.4992 19.5859 35.558 19.5859 38.66C19.5859 41.7287 22.6803 45.0656 26.2305 46.0822C27.59 53.9373 31.8711 60.3605 38.1414 63.9504V68.9533C36.1807 70.7967 31.6477 73.3682 29.8096 74.3379C27.9641 74.9371 26.208 75.6092 24.5887 76.3359C9.62363 83.0457 9.28476 92.8547 9.27773 93.2689V100H90.7223V93.2885C90.7201 92.8709 90.5008 82.9846 75.4166 76.3092ZM41.2396 65.4254C43.9619 66.4773 46.8971 67.0115 49.999 67.0115C53.0979 67.0115 56.034 66.477 58.7603 65.424V68.9898C57.7006 70.0961 54.3471 73.191 49.999 73.191C45.6807 73.191 42.3045 70.0898 41.2396 68.9865V65.4254ZM77.3158 38.66C77.3158 39.9229 75.9516 41.6416 74.1697 42.5932C74.2061 41.9717 74.2277 36.1861 74.2277 36.1861C76.9795 36.5728 77.3158 37.9949 77.3158 38.66ZM34.4008 9.11914C37.9838 5.12383 43.2318 3.09805 49.999 3.09805C56.7672 3.09805 62.0156 5.12422 65.599 9.11973C71.0508 15.1986 71.334 24.3299 71.2225 27.8029C59.0947 27.3184 49.9574 20.968 49.8641 20.902L47.4193 19.1689V22.1658C47.4193 23.4129 44.9139 25.224 37.8818 26.567C34.3328 27.2447 30.743 27.5844 28.7756 27.7344C28.6699 24.2094 28.9852 15.1578 34.4008 9.11914ZM22.6842 38.66C22.6842 37.9949 23.0205 36.5727 25.7719 36.1863C25.7719 36.1863 25.7936 41.9727 25.8299 42.5941C24.0494 41.6432 22.6842 39.9234 22.6842 38.66ZM29.1303 44.5812C28.9576 43.3244 28.8701 42.0256 28.8701 40.7213V30.8357C30.8721 30.6881 34.6295 30.3402 38.4348 29.6154C44.5736 28.4461 48.3307 26.7703 49.8029 24.5283C53.1695 26.5164 61.1207 30.5178 71.1301 30.9016V40.7213C71.1301 42.0244 71.0426 43.323 70.8697 44.5824C69.8191 52.2652 65.7104 58.4893 59.598 61.6578C56.7035 63.1547 53.4744 63.9137 49.9992 63.9137C46.5197 63.9137 43.2912 63.1549 40.4035 61.6584C34.29 58.491 30.1812 52.2672 29.1303 44.5812ZM30.8879 77.2453C30.8879 77.2453 36.751 74.1746 39.6371 71.7617C41.4207 73.4397 45.1623 76.2895 49.999 76.2895C54.8367 76.2895 58.5787 73.44 60.3627 71.7619C63.2484 74.1752 69.1189 77.2477 69.1189 77.2477C70.5549 77.7031 71.9187 78.1992 73.1914 78.7268V96.9022H26.8088V78.751C28.0943 78.2102 29.4609 77.7049 30.8879 77.2453ZM12.3758 93.3248C12.385 93.1594 12.5287 91.1504 14.1352 88.5104C16.4568 84.6943 20.3107 81.991 23.7107 80.2055V96.9018H12.3758V93.3248ZM87.6242 96.902H76.2894V80.1625C79.7158 81.9391 83.5984 84.6412 85.9061 88.4768C87.5209 91.1613 87.6203 93.2012 87.6242 93.3121V96.902Z" fill="#231F20"/>
<path d="M42.2662 37.6293H45.3643C45.3643 37.4863 45.3453 36.1947 44.685 34.875C43.7439 32.9938 41.9701 31.9576 39.6906 31.9576C35.5297 31.9576 34.0191 35.3494 34.0191 37.6291H37.1172C37.1172 37.6225 37.1379 36.9229 37.4689 36.2605C37.7275 35.7434 38.2391 35.0557 39.6906 35.0557C42.0371 35.0559 42.2553 37.0357 42.2662 37.6293Z" fill="#231F20"/>
<path d="M60.3094 35.0559C62.6543 35.0559 62.8719 37.0357 62.8828 37.6293H65.9809C65.9809 35.3496 64.4705 31.9578 60.3094 31.9578C56.1469 31.9578 54.6357 35.3496 54.6357 37.6293L57.7338 37.6426C57.7447 37.0357 57.9629 35.0559 60.3094 35.0559Z" fill="#231F20"/>
<path d="M49.999 59.7951C60.702 59.7951 60.8258 50.0969 60.8258 49.999V48.45H49.999H39.1723V49.999C39.1723 50.0969 39.2961 59.7951 49.999 59.7951ZM49.999 51.548H57.5072C57.0055 53.5295 55.3643 56.6971 49.999 56.6971C46.799 56.6971 44.54 55.607 43.2846 53.4568C42.8986 52.7955 42.6594 52.1227 42.5111 51.5482H49.999V51.548Z" fill="#231F20"/>
<path d="M54.1236 42.2662H51.548V37.6293H48.45V45.3643H54.1236V42.2662Z" fill="#231F20"/>
</svg>
